<?xml version="1.0" encoding="UTF-8" standalone="no"?>
<svg
    xmlns:svg="http://www.w3.org/2000/svg"
    xmlns="http://www.w3.org/2000/svg"
    xmlns:xlink="http://www.w3.org/1999/xlink"
    version="1.1"
    width="603"
    height="182"
    style="fill:#221f1f"
    id="svg1936">
    <path
        d="m 374.00642,142.18404 c -34.99948,25.79739 -85.72909,39.56123 -129.40634,39.56123 -61.24255,0 -116.37656,-22.65135 -158.08757,-60.32496 -3.2771,-2.96252 -0.34083,-6.9999 3.59171,-4.69283 45.01431,26.19064 100.67269,41.94697 158.16623,41.94697 38.77469,0 81.4295,-8.02237 120.6499,-24.67006 5.92501,-2.51683 10.87999,3.50807 5.08607,8.17965"
        id="path8"
        style="fill:#ff9900" />
    <path
        d="m 388.55678,125.53635 c -4.45688,-5.71527 -29.57261,-2.70033 -40.84585,-1.36327 -3.43442,0.41947 -3.95874,-2.56925 -0.86517,-4.71905 20.00346,-14.07844 52.82696,-10.01483 56.65462,-5.2958 3.82764,4.74526 -0.99624,37.64741 -19.79373,53.35128 -2.88385,2.41195 -5.63662,1.12734 -4.35198,-2.07113 4.2209,-10.53917 13.68519,-34.16054 9.20211,-37.90103"
        id="path10"
        style="fill:#ff9900" />
    <path
        d="M 348.49744,20.06598 V 6.38079 c 0,-2.07113 1.57301,-3.46062 3.46062,-3.46062 h 61.26875 c 1.96628,0 3.53929,1.41571 3.53929,3.46062 v 11.71 c -0.0262,1.96626 -1.67788,4.35551 -4.61418,8.59912 l -31.74859,45.32893 c 11.79759,-0.28837 24.25059,1.46814 34.94706,7.49802 2.41195,1.36327 3.05579,3.35575 3.25089,5.2203 V 99.4506 c 0,2.07113 -2.26898,4.49802 -4.63981,3.25673 -18.84992,-9.88376 -43.887,-10.95865 -64.72939,0.10487 -2.12356,1.15354 -4.35199,-1.15354 -4.35199,-3.22557 V 85.66054 c 0,-2.26843 0.0262,-6.02989 2.25463,-9.41186 l 36.78224,-52.74829 h -32.01076 c -1.96626,0 -3.53927,-1.38948 -3.53927,-3.43441"
        id="path12" />
    <path
        d="m 124.99883,105.45424 h -18.64017 c -1.78273,-0.13107 -3.19845,-1.46813 -3.32954,-3.17224 V 6.61676 c 0,-1.91383 1.59923,-3.43442 3.59171,-3.43442 h 17.38176 c 1.80898,0.0786 3.25089,1.46814 3.38199,3.19845 v 12.50545 h 0.34082 c 4.53551,-12.08598 13.05597,-17.7226 24.53896,-17.7226 11.66649,0 18.9559,5.63662 24.25059,17.7226 4.53551,-12.08598 14.8418,-17.7226 25.38176,-17.7226 7.65697,0 16.04618,3.17224 21.10476,10.27627 5.71527,7.89307 4.53551,19.3517 4.53551,29.44416 v 58.84379 c 0,1.91383 -1.62548,3.43442 -3.59171,3.43442 h -18.61391 c -1.88761,-0.13107 -3.40819,-1.65166 -3.40819,-3.43442 V 50.0 c 0,-4.53551 0.41947,-15.83745 -0.57641,-20.13454 -1.57301,-7.18342 -6.28877,-9.20211 -12.39901,-9.20211 -5.03207,0 -10.32866,3.35575 -12.42538,8.70419 -2.09672,5.34844 -1.88761,14.28828 -1.88761,20.63248 v 49.72697 c 0,1.91383 -1.62548,3.43442 -3.59171,3.43442 H 145.5 c -1.91383,-0.13107 -3.40819,-1.65166 -3.40819,-3.43442 V 50.0 c 0,-10.46099 1.72933,-29.0 -12.97542,-29.0 -14.8418,0 -14.26202,16.93924 -14.26202,29.0 v 49.72697 c 0,1.91383 -1.62548,3.43442 -3.53929,3.43442 z"
        id="path14" />
</svg>
