<?xml version="1.0" encoding="UTF-8" standalone="no"?>
<svg
   xmlns:dc="http://purl.org/dc/elements/1.1/"
   xmlns:cc="http://creativecommons.org/ns#"
   xmlns:rdf="http://www.w3.org/1999/02/22-rdf-syntax-ns#"
   xmlns:svg="http://www.w3.org/2000/svg"
   xmlns="http://www.w3.org/2000/svg"
   xmlns:xlink="http://www.w3.org/1999/xlink"
   id="svg8"
   version="1.1"
   viewBox="0 0 210 69"
   height="69mm"
   width="210mm">
  <defs
     id="defs2">
    <linearGradient
       id="linearGradient1000">
      <stop
         id="stop996"
         offset="0"
         style="stop-color:#fff159;stop-opacity:1" />
      <stop
         id="stop998"
         offset="1"
         style="stop-color:#fff159;stop-opacity:1" />
    </linearGradient>
    <linearGradient
       gradientUnits="userSpaceOnUse"
       y2="98.16761"
       x2="120.18588"
       y1="98.16761"
       x1="4.6061964"
       id="linearGradient1002"
       xlink:href="#linearGradient1000" />
  </defs>
  <metadata
     id="metadata5">
    <rdf:RDF>
      <cc:Work
         rdf:about="">
        <dc:format>image/svg+xml</dc:format>
        <dc:type
           rdf:resource="http://purl.org/dc/dcmitype/StillImage" />
        <dc:title></dc:title>
      </cc:Work>
    </rdf:RDF>
  </metadata>
  <g
     transform="translate(0,-228)"
     id="layer1">
    <g
       transform="matrix(1.7553709,0,0,1.7553709,-8.0842519,89.609878)"
       id="g1140">
      <rect
         ry="19.490482"
         rx="19.490482"
         y="78.677132"
         x="4.6061964"
         height="38.980961"
         width="115.57968"
         id="rect992"
         style="opacity:1;fill:url(#linearGradient1002);fill-opacity:1;stroke:none;stroke-width:0.26458332;stroke-opacity:1" />
      <g
         transform="matrix(1.0659753,0,0,1.0659753,-4.9812039,-5.2024369)"
         id="g1034">
        <path
           style="fill:#2d3277;fill-opacity:1;stroke-width:0.15224999"
           d="m 52.577449,90.374226 c -1.524326,0 -2.819117,1.294791 -2.819117,2.819117 v 9.220378 c 0,1.52433 1.294791,2.81912 2.819117,2.81912 h 2.819117 c 1.524326,0 2.819117,-1.29479 2.819117,-2.81912 v -9.220378 c 0,-1.524326 -1.294791,-2.819117 -2.819117,-2.819117 z m 0,1.065657 h 2.819117 c 0.990179,0 1.75346,0.763281 1.75346,1.75346 v 9.220378 c 0,0.99018 -0.763281,1.75346 -1.75346,1.75346 h -2.819117 c -0.990179,0 -1.75346,-0.76328 -1.75346,-1.75346 v -9.220378 c 0,-0.990179 0.763281,-1.75346 1.75346,-1.75346 z"
           id="path1018" />
        <path
           style="fill:#2d3277;fill-opacity:1;stroke-width:0.15224999"
           d="m 32.54325,90.374226 v 2.619101 c 0,0.857332 0.139713,1.142538 0.635365,1.457111 0.568583,0.361056 1.105103,0.351744 1.67469,0.337277 v -1.280006 c -0.570824,0 -0.70241,0.02024 -0.892382,-0.112782 -0.213739,-0.149667 -0.187673,-0.319962 -0.187673,-0.503587 v -1.469114 h 1.080773 v -1.065 -1.009226 H 33.77377 v -2.034587 h -1.23052 z"
           id="path1020" />
        <path
           style="fill:#2d3277;fill-opacity:1;stroke-width:0.15224999"
           d="m 46.038451,90.374226 c -1.524326,0 -2.819117,1.294791 -2.819117,2.819117 v 0.752267 c 0,1.524326 1.294791,2.819117 2.819117,2.819117 h 3.675635 v -1.065657 h -3.675635 c -0.990179,0 -1.75346,-0.763281 -1.75346,-1.75346 v -0.752267 c 0,-0.990179 0.763281,-1.75346 1.75346,-1.75346 h 0.856599 c 0.99018,0 1.75346,0.763281 1.75346,1.75346 v 0.14147 h -3.81339 v 1.065657 h 4.879047 v -1.207127 c 0,-1.524326 -1.294791,-2.819117 -2.819117,-2.819117 z"
           id="path1022" />
        <path
           style="fill:#2d3277;fill-opacity:1;stroke-width:0.15224999"
           d="m 41.125355,90.374226 c -1.524326,0 -2.819117,1.294791 -2.819117,2.819117 v 4.51407 c 0,1.524326 1.294791,2.819117 2.819117,2.819117 h 2.819117 c 1.524326,0 2.819117,-1.294791 2.819117,-2.819117 v -4.51407 c 0,-1.524326 -1.294791,-2.819117 -2.819117,-2.819117 z m 0,1.065657 h 2.819117 c 0.990179,0 1.75346,0.763281 1.75346,1.75346 v 4.51407 c 0,0.99018 -0.763281,1.75346 -1.75346,1.75346 h -2.819117 c -0.990179,0 -1.75346,-0.76328 -1.75346,-1.75346 v -4.51407 c 0,-0.990179 0.763281,-1.75346 1.75346,-1.75346 z"
           id="path1024" />
        <path
           style="fill:#2d3277;fill-opacity:1;stroke-width:0.15224999"
           d="m 26.685399,90.374226 c -1.524326,0 -2.819117,1.294791 -2.819117,2.819117 v 0.752267 c 0,1.524326 1.294791,2.819117 2.819117,2.819117 h 3.675635 v -1.065657 h -3.675635 c -0.990179,0 -1.75346,-0.763281 -1.75346,-1.75346 v -0.752267 c 0,-0.990179 0.763281,-1.75346 1.75346,-1.75346 h 0.856599 c 0.990179,0 1.75346,0.763281 1.75346,1.75346 v 0.14147 h -3.813389 v 1.065657 h 4.879046 v -1.207127 c 0,-1.524326 -1.294791,-2.819117 -2.819117,-2.819117 z"
           id="path1026" />
        <path
           style="fill:#2d3277;fill-opacity:1;stroke-width:0.15224999"
           d="m 66.07282,97.699986 h -1.499728 v 1.065657 h 1.499728 v 3.647927 c 0,0.99018 -0.763281,1.75346 -1.75346,1.75346 h -1.456782 v 1.06566 h 1.456782 c 1.524326,0 2.819117,-1.29479 2.819117,-2.81912 V 93.193343 c 0,-1.524326 -1.294791,-2.819117 -2.819117,-2.819117 h -2.819117 c -1.524326,0 -2.819117,1.294791 -2.819117,2.819117 v 4.51407 c 0,1.524326 1.294791,2.819117 2.819117,2.819117 h 1.065657 v -1.065657 h -1.065657 c -0.990179,0 -1.75346,-0.76328 -1.75346,-1.75346 v -4.51407 c 0,-0.990179 0.763281,-1.75346 1.75346,-1.75346 h 2.819117 c 0.990179,0 1.75346,0.763281 1.75346,1.75346 z"
           id="path1028" />
        <path
           style="fill:#2d3277;fill-opacity:1;stroke-width:0.15224999"
           d="m 70.357972,90.374226 c -1.524326,0 -2.819117,1.294791 -2.819117,2.819117 v 4.51407 c 0,1.524326 1.294791,2.819117 2.819117,2.819117 h 2.819117 c 1.524326,0 2.819117,-1.294791 2.819117,-2.819117 v -4.51407 c 0,-1.524326 -1.294791,-2.819117 -2.819117,-2.819117 z m 0,1.065657 h 2.819117 c 0.990179,0 1.75346,0.763281 1.75346,1.75346 v 4.51407 c 0,0.99018 -0.763281,1.75346 -1.75346,1.75346 h -2.819117 c -0.990179,0 -1.75346,-0.76328 -1.75346,-1.75346 v -4.51407 c 0,-0.990179 0.763281,-1.75346 1.75346,-1.75346 z"
           id="path1030" />
        <path
           style="fill:#2d3277;fill-opacity:1;stroke-width:0.15224999"
           d="m 57.66075,99.124688 h 2.819117 c 1.524326,0 2.819117,-1.294791 2.819117,-2.819117 v -3.112231 c 0,-1.524326 -1.294791,-2.819117 -2.819117,-2.819117 h -2.819117 c -1.524326,0 -2.819117,1.294791 -2.819117,2.819117 v 9.220378 c 0,1.52433 1.294791,2.81912 2.819117,2.81912 h 1.452928 v -1.06566 H 57.66075 c -0.990179,0 -1.75346,-0.76328 -1.75346,-1.75346 v -4.38203 c 0.528615,0.589318 1.26243,0.953 2.054773,0.953 z m 0,-1.065657 c -0.990179,0 -1.75346,-0.763281 -1.75346,-1.75346 v -3.112231 c 0,-0.990179 0.763281,-1.75346 1.75346,-1.75346 h 2.819117 c 0.990179,0 1.75346,0.763281 1.75346,1.75346 v 3.112231 c 0,0.990179 -0.763281,1.75346 -1.75346,1.75346 z"
           id="path1032" />
      </g>
    </g>
  </g>
</svg>
