<?xml version="1.0" encoding="UTF-8" standalone="no"?>
<svg
   xmlns:dc="http://purl.org/dc/elements/1.1/"
   xmlns:cc="http://creativecommons.org/ns#"
   xmlns:rdf="http://www.w3.org/1999/02/22-rdf-syntax-ns#"
   xmlns:svg="http://www.w3.org/2000/svg"
   xmlns="http://www.w3.org/2000/svg"
   version="1.1"
   id="svg861"
   xml:space="preserve"
   width="2500"
   height="619"
   viewBox="0 0 2500 619"><metadata
     id="metadata867"><rdf:RDF><cc:Work
         rdf:about=""><dc:format>image/svg+xml</dc:format><dc:type
           rdf:resource="http://purl.org/dc/dcmitype/StillImage" /></cc:Work></rdf:RDF></metadata><defs
     id="defs865" /><g
     id="g869"
     transform="matrix(1.3333333,0,0,-1.3333333,0,619)"><g
       id="g871"
       transform="scale(0.1)"><path
         d="M 412.477,3227.74 C 271.961,3227.74 158.047,3113.83 158.047,2973.31 V 2595.15 C 158.047,2454.64 271.961,2340.72 412.477,2340.72 h 835.129 c 442.63,0 686.95,-213.52 686.95,-469.17 0,-255.66 -244.32,-468.99 -686.95,-468.99 H 0 V 545.586 h 1247.61 c 879.25,0 1569.27,506.894 1569.27,1325.964 0,819.08 -690.02,1325.78 -1569.27,1325.78 H 719.402 v 269.62 H 1902.95 c 140.52,0 254.43,113.91 254.43,254.43 v 371.93 c 0,140.52 -113.91,254.43 -254.43,254.43 H 412.477"
         style="fill:#000000;fill-opacity:1;fill-rule:evenodd;stroke:none"
         id="path873" /><path
         d="m 5975.76,4790.2 c -140.52,0 -254.43,-113.91 -254.43,-254.43 V 545.586 h 882.63 V 4790.2 h -628.2"
         style="fill:#000000;fill-opacity:1;fill-rule:evenodd;stroke:none"
         id="path875" /><path
         d="m 4356.57,3227.74 c -140.52,0 -254.43,-113.91 -254.43,-254.43 V 545.586 h 882.63 V 2340.72 h 1846.38 v 632.59 c 0,140.52 -113.91,254.43 -254.43,254.43 H 4356.57"
         style="fill:#000000;fill-opacity:1;fill-rule:evenodd;stroke:none"
         id="path877" /><path
         d="m 9889.43,4790.2 c -140.52,0 -254.43,-113.91 -254.43,-254.43 V 2273.66 c 0,-858.06 -707.32,-778.02 -707.32,-778.02 -140.52,0 -254.44,-113.91 -254.44,-254.43 V 842.488 c 0,-140.519 113.92,-254.429 254.44,-254.429 0,0 1719.75,-118.918 1719.75,1685.601 v 2262.11 c 0,140.52 -113.91,254.43 -254.43,254.43 h -503.57"
         style="fill:#000000;fill-opacity:1;fill-rule:evenodd;stroke:none"
         id="path879" /><path
         d="m 6794.96,3227.74 c -140.52,0 -254.43,-113.91 -254.43,-254.43 V 545.586 h 2579.84 c 140.52,0 254.43,113.91 254.43,254.429 V 1177.77 c 0,140.52 -113.91,254.43 -254.43,254.43 H 7423.16 v 386.29 h 2317.29 c 140.52,0 254.43,113.91 254.43,254.43 v 380.31 c 0,140.52 -113.91,254.43 -254.43,254.43 H 7423.16 v 384.86 h 2697.21 c 140.52,0 254.43,113.91 254.43,254.43 v 378.32 c 0,140.52 -113.91,254.43 -254.43,254.43 H 6794.96"
         style="fill:#000000;fill-opacity:1;fill-rule:evenodd;stroke:none"
         id="path881" /><path
         d="m 11792.4,3227.74 c -140.5,0 -254.4,-113.91 -254.4,-254.43 V 545.586 h 628.2 c 140.5,0 254.4,113.91 254.4,254.429 V 2281.23 h 379.5 L 13915.3,545.586 h 880.4 V 2973.31 c 0,140.52 -113.9,254.43 -254.4,254.43 h -1749.1 v 256.46 c 0,140.52 -113.9,254.43 -254.5,254.43 h -503.3 v -510.89"
         style="fill:#000000;fill-opacity:1;fill-rule:evenodd;stroke:none"
         id="path883" /><path
         d="m 15642.6,4790.2 c -140.5,0 -254.4,-113.91 -254.4,-254.43 V 545.586 h 882.6 V 4790.2 h -628.2"
         style="fill:#000000;fill-opacity:1;fill-rule:evenodd;stroke:none"
         id="path885" /><path
         d="m 15707.4,5204.35 c -308.8,0 -559.1,-250.3 -559.1,-559.1 0,-308.8 250.3,-559.1 559.1,-559.1 308.8,0 559.1,250.3 559.1,559.1 0,308.8 -250.3,559.1 -559.1,559.1"
         style="fill:#000000;fill-opacity:1;fill-rule:evenodd;stroke:none"
         id="path887" /></g></g></svg>
