<?xml version="1.0" encoding="UTF-8" standalone="no"?>
<!-- Uploaded to: SVG Repo, www.svgrepo.com, Generator: SVG Repo Mixer Tools -->
<svg
   width="800px"
   height="800px"
   viewBox="0 0 512 512"
   version="1.1"
   xmlns="http://www.w3.org/2000/svg"
   xmlns:xlink="http://www.w3.org/1999/xlink">
    <title>ionicons/logo-tiktok</title>
    <g id="Page-1" stroke="none" stroke-width="1" fill="none" fill-rule="evenodd">
        <g id="icon" fill="#000000" transform="translate(96.000000, 32.000000)">
            <path d="M292.182,110.8 C268.35,110.8 245.998,103.469 227.427,90.179 L227.427,307.542 C227.427,351.83 191.367,387.89 147.079,387.89 C102.792,387.89 66.731,351.83 66.731,307.542 C66.731,263.255 102.792,227.194 147.079,227.194 C155.254,227.194 163.149,228.417 170.602,230.685 L170.602,168.83 C162.873,167.855 155.011,167.338 147.079,167.338 C69.807,167.338 6.875,230.27 6.875,307.542 C6.875,384.815 69.807,447.747 147.079,447.747 C224.352,447.747 287.284,384.815 287.284,307.542 L287.284,212.006 C304.308,223.156 324.709,229.687 346.645,229.687 L346.645,110.8 L292.182,110.8 Z M346.645,110.8 C321.259,110.8 298.154,100.36 281.273,83.478 C264.391,66.597 253.951,43.492 253.951,18.106 L253.951,0 L346.645,0 L346.645,110.8 Z" id="Shape"></path>
        </g>
    </g>
</svg>
